<svg version="1.0" xmlns="http://www.w3.org/2000/svg"
 width="900.000000pt" height="885.000000pt" viewBox="0 0 900.000000 885.000000"
 preserveAspectRatio="xMidYMid meet">
<g transform="translate(0.000000,885.000000) scale(0.100000,-0.100000)"
fill="#2792C1" stroke="none">
<path fill="#196683" d="M5588 8243 c-8 -16 -30 -55 -48 -88 -18 -33 -45 -82 -60 -110 -15
-27 -43 -79 -63 -115 -19 -36 -51 -94 -71 -130 -71 -128 -88 -168 -77 -187 5
-10 37 -43 72 -73 34 -30 74 -65 88 -78 26 -23 153 -110 181 -125 8 -4 29 -16
45 -27 17 -10 77 -42 135 -70 58 -29 116 -58 130 -65 14 -7 30 -10 37 -8 18 6
102 125 160 223 55 94 197 373 207 407 10 33 -50 87 -229 205 -100 66 -332
208 -340 208 -2 0 -27 14 -55 30 -64 38 -91 38 -112 3z"/>
<path d="M7315 6475 c-94 -14 -167 -32 -213 -51 -18 -8 -39 -14 -47 -14 -8 0
-31 -7 -52 -16 -21 -9 -51 -22 -68 -29 -145 -62 -321 -157 -485 -264 -88 -57
-379 -271 -441 -325 -19 -17 -46 -40 -60 -51 -307 -257 -713 -671 -904 -925
-27 -36 -54 -69 -60 -73 -16 -12 -181 3 -261 23 -105 27 -196 73 -252 128 -47
46 -109 132 -133 184 -13 29 -55 107 -97 180 -31 53 -102 131 -139 152 -23 12
-45 -21 -86 -129 -72 -191 -120 -393 -119 -509 1 -68 22 -192 37 -216 4 -7 11
-26 15 -44 5 -17 18 -56 30 -86 67 -175 130 -391 164 -565 36 -186 76 -504 76
-600 0 -27 7 -104 15 -170 31 -246 12 -383 -70 -510 -137 -212 -539 -489 -950
-655 -44 -17 -95 -38 -113 -46 -18 -8 -39 -14 -47 -14 -8 0 -29 -6 -47 -14
-76 -32 -327 -94 -483 -120 -414 -68 -855 -32 -1098 90 -16 8 -32 14 -37 14
-14 0 -163 90 -205 125 -163 133 -274 289 -333 471 -80 244 -99 477 -62 764
18 138 54 316 81 395 6 17 14 44 19 60 5 17 18 55 30 85 33 84 42 130 36 184
-6 52 -20 76 -43 76 -14 0 -52 -37 -53 -52 0 -4 -11 -24 -25 -44 -27 -40 -111
-210 -140 -284 -45 -116 -85 -240 -104 -320 -5 -19 -13 -55 -19 -80 -6 -25
-18 -75 -26 -112 -9 -36 -16 -79 -16 -95 0 -15 -6 -59 -14 -98 -8 -38 -20
-157 -27 -262 -17 -270 2 -525 58 -738 22 -83 74 -237 92 -273 5 -9 24 -48 43
-85 18 -38 39 -73 45 -79 7 -6 13 -15 13 -20 0 -17 122 -169 187 -234 37 -35
99 -86 140 -114 70 -48 249 -140 272 -140 6 0 25 -6 43 -14 174 -73 482 -104
808 -81 204 14 301 27 386 51 28 8 60 14 71 14 11 0 39 6 64 14 24 7 71 21
104 31 99 29 317 117 405 163 303 161 505 318 704 547 132 151 218 279 328
485 55 104 118 269 162 425 40 141 46 163 46 184 0 13 7 50 15 84 36 155 66
462 74 775 5 200 9 244 21 252 24 15 268 12 423 -6 210 -24 779 -25 937 0 133
20 256 42 320 58 25 6 63 14 85 18 103 18 521 146 685 210 30 12 66 25 80 30
91 30 419 186 505 241 17 10 37 22 45 26 31 15 211 142 230 163 3 3 36 32 73
64 108 94 230 245 324 401 31 51 104 213 114 250 4 17 12 44 18 60 12 36 34
123 56 229 26 117 26 335 1 400 -71 184 -267 316 -591 399 -260 66 -391 78
-560 52z m41 -770 c134 -31 193 -50 329 -106 375 -155 350 -309 -80 -494 -70
-30 -238 -91 -290 -105 -16 -5 -43 -13 -60 -18 -30 -10 -83 -26 -188 -55 -31
-9 -81 -23 -110 -31 -28 -8 -74 -22 -102 -29 -290 -83 -493 -130 -785 -181
-296 -52 -730 -55 -730 -5 0 25 219 241 410 404 218 186 397 325 525 406 39
24 79 50 90 57 11 6 30 17 43 22 13 5 46 21 75 34 89 41 144 59 287 97 122 32
455 34 586 4z"/>
</g>
</svg>
