<svg version="1.0" xmlns="http://www.w3.org/2000/svg"
 width="900.000000pt" height="1461.000000pt" viewBox="0 0 900.000000 1461.000000"
 preserveAspectRatio="xMidYMid meet">
<g transform="translate(0.000000,1461.000000) scale(0.100000,-0.100000)"
fill="#2792C1" stroke="none">
<path d="M4285 13894 c-16 -14 -52 -41 -80 -60 -51 -35 -97 -69 -161 -121 -20
-15 -89 -68 -153 -118 -202 -155 -213 -164 -451 -371 -237 -206 -536 -512
-660 -674 -19 -25 -40 -49 -46 -55 -28 -24 -248 -331 -347 -485 -148 -230
-348 -620 -421 -820 -24 -65 -87 -235 -101 -270 -30 -78 -101 -331 -148 -530
-16 -68 -65 -367 -91 -555 -47 -338 -45 -1058 3 -1344 5 -31 17 -101 26 -156
35 -211 122 -545 180 -695 37 -98 119 -287 140 -324 12 -22 43 -80 69 -129
142 -271 390 -584 611 -773 165 -141 428 -294 592 -345 38 -12 84 -27 103 -34
142 -52 552 -82 755 -54 196 26 390 78 511 135 28 13 54 24 58 24 15 0 215
126 286 180 97 74 267 244 340 340 131 174 199 298 285 520 19 47 51 187 66
281 14 93 7 546 -10 634 -70 361 -141 537 -309 765 -66 88 -173 198 -257 261
-63 48 -234 152 -298 181 -180 83 -306 123 -637 203 -162 39 -464 135 -518
165 -9 5 -62 30 -117 56 -299 141 -476 312 -557 537 -20 55 -23 80 -22 222 1
162 9 219 56 395 26 100 69 219 114 315 63 137 124 254 187 360 61 104 156
242 332 485 35 48 260 316 285 340 3 3 80 84 170 180 176 186 503 508 648 635
20 18 31 36 29 46 -5 20 -373 636 -395 662 -20 23 -31 21 -67 -9z"/>
<path fill="#196683" d="M3645 4555 c-170 -22 -360 -83 -488 -157 -26 -15 -50 -28 -52 -28
-14 0 -168 -113 -238 -175 -86 -76 -109 -100 -196 -204 -197 -240 -311 -564
-311 -887 0 -106 31 -338 49 -372 6 -11 11 -29 11 -39 0 -22 65 -182 80 -197
5 -5 10 -16 10 -23 0 -41 165 -267 280 -382 341 -341 724 -484 1212 -451 185
13 336 53 503 136 49 25 97 51 105 59 9 8 20 15 25 15 4 0 45 28 89 62 95 72
260 238 316 317 110 155 205 344 227 451 2 14 11 45 18 70 52 172 49 539 -6
750 -21 80 -71 213 -106 285 -154 312 -465 589 -787 700 -226 78 -484 102
-741 70z"/>
</g>
</svg>
